# xmcd
#
# Track frame offsets:
#	150
#	19150
#	38075
#	54890
#
# Disc length: 955 seconds
#
# Revision: 1
# Processed by: cddbd v1.5.2PL0 Copyright (c) Steve Scherf et al.
# Submitted via: audiograbber 1.83.01
#
DISCID=2503b904
DTITLE=Loona - Rhythm Of The Night - Mixes (Maxi-Cd)
DYEAR=1900
DGENRE=Euro-House
TTITLE0=Rhythm Of The Night (Extended Version)
TTITLE1=Rhythm Of The Night (Remix)
TTITLE2=Rhythm Of The Night (English Version)
TTITLE3=Rhythm Of The Night (Spanish Version)
EXTD=
EXTT0=
EXTT1=
EXTT2=
EXTT3=
PLAYORDER=
